<mxfile host="Electron" agent="Mozilla/5.0 (Windows NT 10.0; Win64; x64) AppleWebKit/537.36 (KHTML, like Gecko) draw.io/24.7.8 Chrome/128.0.6613.36 Electron/32.0.1 Safari/537.36" version="24.7.8">
  <diagram name="PÃ¡gina-1" id="LMIvnEDbTA8zPvSmT92J">
    <mxGraphModel dx="600" dy="410" grid="1" gridSize="10" guides="1" tooltips="1" connect="1" arrows="1" fold="1" page="1" pageScale="1" pageWidth="827" pageHeight="1169" math="0" shadow="0">
      <root>
        <mxCell id="0" />
        <mxCell id="1" parent="0" />
        <mxCell id="6usGr0xZV6U8COzTVEv1-1" value="" style="image;html=1;image=img/lib/clip_art/computers/Server_Rack_Empty_128x128.png" vertex="1" parent="1">
          <mxGeometry x="90" y="200" width="80" height="80" as="geometry" />
        </mxCell>
        <mxCell id="6usGr0xZV6U8COzTVEv1-2" value="Server" style="text;html=1;align=center;verticalAlign=middle;whiteSpace=wrap;rounded=0;" vertex="1" parent="1">
          <mxGeometry x="100" y="150" width="60" height="30" as="geometry" />
        </mxCell>
        <mxCell id="6usGr0xZV6U8COzTVEv1-7" style="edgeStyle=orthogonalEdgeStyle;rounded=0;orthogonalLoop=1;jettySize=auto;html=1;shadow=1;flowAnimation=1;" edge="1" parent="1" source="6usGr0xZV6U8COzTVEv1-4" target="6usGr0xZV6U8COzTVEv1-6">
          <mxGeometry relative="1" as="geometry" />
        </mxCell>
        <mxCell id="6usGr0xZV6U8COzTVEv1-4" value="" style="image;aspect=fixed;perimeter=ellipsePerimeter;html=1;align=center;shadow=0;dashed=0;spacingTop=3;image=img/lib/active_directory/windows_server.svg;" vertex="1" parent="1">
          <mxGeometry x="150" y="320" width="41" height="50" as="geometry" />
        </mxCell>
        <mxCell id="6usGr0xZV6U8COzTVEv1-5" value="Backend" style="text;html=1;align=center;verticalAlign=middle;whiteSpace=wrap;rounded=0;" vertex="1" parent="1">
          <mxGeometry x="70" y="330" width="60" height="30" as="geometry" />
        </mxCell>
        <mxCell id="6usGr0xZV6U8COzTVEv1-6" value="API" style="text;html=1;align=center;verticalAlign=middle;whiteSpace=wrap;rounded=0;" vertex="1" parent="1">
          <mxGeometry x="410" y="330" width="60" height="30" as="geometry" />
        </mxCell>
        <mxCell id="6usGr0xZV6U8COzTVEv1-8" value="protocolo//ip:puerto/package/endpoint&lt;div&gt;http//localhost:9000/carrito/api-v1/persona&lt;/div&gt;" style="text;html=1;align=center;verticalAlign=middle;whiteSpace=wrap;rounded=0;fillColor=#dae8fc;strokeColor=#6c8ebf;" vertex="1" parent="1">
          <mxGeometry x="230" y="360" width="240" height="30" as="geometry" />
        </mxCell>
        <mxCell id="6usGr0xZV6U8COzTVEv1-9" value="Verbos http:&amp;nbsp;&lt;div&gt;* POST&lt;/div&gt;&lt;div&gt;* PUT&lt;/div&gt;&lt;div&gt;* DELETE&lt;/div&gt;&lt;div&gt;* GET&lt;/div&gt;" style="text;html=1;align=center;verticalAlign=middle;whiteSpace=wrap;rounded=0;fillColor=#f8cecc;strokeColor=#b85450;" vertex="1" parent="1">
          <mxGeometry x="230" y="400" width="180" height="70" as="geometry" />
        </mxCell>
        <mxCell id="6usGr0xZV6U8COzTVEv1-10" value="Verbos HTTP STATUS:&amp;nbsp;&lt;div&gt;* 100 Informativos&lt;/div&gt;&lt;div&gt;* 200 ok&lt;/div&gt;&lt;div&gt;* 300 Redireccionamiento&lt;/div&gt;&lt;div&gt;* 400 Restricciones&lt;/div&gt;&lt;div&gt;500 Error de server&lt;/div&gt;" style="text;html=1;align=center;verticalAlign=middle;whiteSpace=wrap;rounded=0;fillColor=#f8cecc;strokeColor=#b85450;" vertex="1" parent="1">
          <mxGeometry x="230" y="480" width="180" height="100" as="geometry" />
        </mxCell>
        <mxCell id="6usGr0xZV6U8COzTVEv1-11" value="" style="html=1;verticalLabelPosition=bottom;align=center;labelBackgroundColor=#ffffff;verticalAlign=top;strokeWidth=2;strokeColor=#0080F0;shadow=0;dashed=0;shape=mxgraph.ios7.icons.smartphone;" vertex="1" parent="1">
          <mxGeometry x="560" y="240" width="18" height="30" as="geometry" />
        </mxCell>
        <mxCell id="6usGr0xZV6U8COzTVEv1-12" style="edgeStyle=orthogonalEdgeStyle;rounded=0;orthogonalLoop=1;jettySize=auto;html=1;entryX=0.476;entryY=0.827;entryDx=0;entryDy=0;entryPerimeter=0;shadow=1;flowAnimation=1;" edge="1" parent="1" source="6usGr0xZV6U8COzTVEv1-6" target="6usGr0xZV6U8COzTVEv1-11">
          <mxGeometry relative="1" as="geometry" />
        </mxCell>
        <mxCell id="6usGr0xZV6U8COzTVEv1-13" value="" style="verticalLabelPosition=bottom;aspect=fixed;html=1;shape=mxgraph.salesforce.web;" vertex="1" parent="1">
          <mxGeometry x="580" y="390" width="60" height="47.400000000000006" as="geometry" />
        </mxCell>
        <mxCell id="6usGr0xZV6U8COzTVEv1-14" style="edgeStyle=orthogonalEdgeStyle;rounded=0;orthogonalLoop=1;jettySize=auto;html=1;entryX=0;entryY=0.846;entryDx=0;entryDy=0;entryPerimeter=0;flowAnimation=1;shadow=1;" edge="1" parent="1" source="6usGr0xZV6U8COzTVEv1-6" target="6usGr0xZV6U8COzTVEv1-13">
          <mxGeometry relative="1" as="geometry" />
        </mxCell>
        <mxCell id="6usGr0xZV6U8COzTVEv1-15" value="" style="sketch=0;html=1;aspect=fixed;strokeColor=none;shadow=0;fillColor=#3B8DF1;verticalAlign=top;labelPosition=center;verticalLabelPosition=bottom;shape=mxgraph.gcp2.cloud_computer" vertex="1" parent="1">
          <mxGeometry x="490" y="486" width="100" height="88" as="geometry" />
        </mxCell>
        <mxCell id="6usGr0xZV6U8COzTVEv1-16" style="edgeStyle=orthogonalEdgeStyle;rounded=0;orthogonalLoop=1;jettySize=auto;html=1;entryX=0.259;entryY=0.001;entryDx=0;entryDy=0;entryPerimeter=0;flowAnimation=1;shadow=1;" edge="1" parent="1" source="6usGr0xZV6U8COzTVEv1-6" target="6usGr0xZV6U8COzTVEv1-15">
          <mxGeometry relative="1" as="geometry" />
        </mxCell>
        <mxCell id="6usGr0xZV6U8COzTVEv1-17" value="BD" style="shape=cylinder3;whiteSpace=wrap;html=1;boundedLbl=1;backgroundOutline=1;size=15;" vertex="1" parent="1">
          <mxGeometry x="250" y="125" width="60" height="80" as="geometry" />
        </mxCell>
        <mxCell id="6usGr0xZV6U8COzTVEv1-18" style="edgeStyle=orthogonalEdgeStyle;rounded=0;orthogonalLoop=1;jettySize=auto;html=1;entryX=-0.01;entryY=0.605;entryDx=0;entryDy=0;entryPerimeter=0;shadow=1;flowAnimation=1;" edge="1" parent="1" source="6usGr0xZV6U8COzTVEv1-1" target="6usGr0xZV6U8COzTVEv1-17">
          <mxGeometry relative="1" as="geometry" />
        </mxCell>
      </root>
    </mxGraphModel>
  </diagram>
</mxfile>
